<svg width="652" height="188" viewBox="0 0 652 188" fill="none" xmlns="http://www.w3.org/2000/svg">
<path d="M79.1961 9.60004H180.388L105.992 119.87H4.79993L79.1961 9.60004Z" fill="#007AFF"/>
<path d="M83.6275 130.09L54.8121 172.8H160.804L235.2 62.5302H156.971L111.391 130.09H83.6275Z" fill="#312ECB"/>
<path d="M295.008 54.204C309.984 54.204 321.504 58.14 329.568 66.012C337.632 73.692 341.664 85.5 341.664 101.436V162.204C341.664 163.356 341.184 164.412 340.224 165.372C339.456 166.14 338.496 166.524 337.344 166.524H323.232C322.08 166.524 321.024 166.14 320.064 165.372C319.296 164.412 318.912 163.356 318.912 162.204V149.532C318.912 148.956 318.624 148.572 318.048 148.38C317.472 148.188 316.992 148.284 316.608 148.668C312.768 154.044 308.16 158.652 302.784 162.492C297.408 166.332 292.032 168.156 286.656 167.964C278.592 167.964 271.872 166.62 266.496 163.932C260.736 161.052 256.224 157.116 252.96 152.124C249.888 146.94 248.352 141.18 248.352 134.844C248.352 128.508 249.696 122.844 252.384 117.852C255.264 112.86 259.776 108.924 265.92 106.044C272.256 103.164 280.608 101.724 290.976 101.724H292.128C292.512 101.724 292.8 101.916 292.992 102.3C293.376 102.684 293.472 103.068 293.28 103.452L287.52 118.428C287.328 119.004 286.944 119.292 286.368 119.292C281.76 119.868 278.4 121.212 276.288 123.324C273.408 126.204 271.968 129.756 271.968 133.98C271.968 138.588 273.696 142.332 277.152 145.212C280.608 147.9 285.408 149.244 291.552 149.244C295.968 149.244 300.192 147.516 304.224 144.06C308.256 140.412 311.232 136.956 313.152 133.692C315.264 130.428 316.8 127.452 317.76 124.764V99.996C317.76 92.508 315.552 86.652 311.136 82.428C306.912 78.204 300.48 76.092 291.84 76.092C286.272 76.092 280.704 77.052 275.136 78.972C271.296 80.316 267.84 81.948 264.768 83.868C263.616 84.636 262.368 84.924 261.024 84.732C259.872 84.348 259.008 83.484 258.432 82.14L252.96 71.196C251.808 69.084 252.288 67.26 254.4 65.724C259.392 62.268 265.056 59.58 271.392 57.66C278.88 55.356 286.752 54.204 295.008 54.204ZM514.136 60.54C520.472 63.996 525.464 69.372 529.112 76.668C532.76 83.772 534.584 92.892 534.584 104.028V165.66C534.584 167.004 533.912 167.676 532.568 167.676H512.696C511.352 167.676 510.68 167.004 510.68 165.66V107.484C510.68 97.692 508.664 90.396 504.632 85.596C500.6 80.604 494.84 78.108 487.352 78.108C482.168 78.108 477.56 79.356 473.528 81.852C469.496 84.348 466.328 88.092 464.024 93.084C461.72 98.076 460.568 104.22 460.568 111.516V165.66C460.568 167.004 459.896 167.676 458.552 167.676H438.68C437.528 167.676 436.952 167.004 436.952 165.66V107.484C436.952 97.692 434.84 90.396 430.616 85.596C426.584 80.604 420.92 78.108 413.624 78.108C408.248 78.108 403.544 79.356 399.512 81.852C395.48 84.348 392.312 88.092 390.008 93.084C387.896 97.884 386.84 104.028 386.84 111.516V165.66C386.84 167.004 386.168 167.676 384.824 167.676H364.952C363.608 167.676 362.936 167.004 362.936 165.66V58.812C362.936 57.468 363.608 56.796 364.952 56.796H369.56C374.936 56.988 380.312 61.692 385.688 70.908C385.88 70.716 386.552 70.044 387.703 68.892C388.856 67.74 390.296 66.396 392.023 64.86C393.752 63.132 395.288 61.884 396.632 61.116C403.352 57.276 410.936 55.356 419.384 55.356C428.984 55.356 437.336 57.948 444.44 63.132C448.472 65.82 451.64 69.468 453.944 74.076C454.136 74.652 454.52 74.556 455.096 73.788C455.864 72.828 457.208 71.292 459.128 69.18C461.048 66.876 463.256 64.86 465.752 63.132C472.664 57.948 481.592 55.356 492.536 55.356C500.6 55.356 507.8 57.084 514.136 60.54ZM630.672 109.5C634.512 111.612 637.584 114.684 639.888 118.716C642.384 122.556 643.632 127.548 643.632 133.692C643.632 140.796 641.712 146.94 637.872 152.124C634.032 157.116 628.656 161.052 621.744 163.932C615.024 166.62 606.864 167.964 597.264 167.964C588.432 167.964 580.08 166.812 572.208 164.508C565.68 162.396 560.208 159.996 555.792 157.308C554.256 156.156 553.872 154.716 554.64 152.988L560.976 139.452C562.128 137.148 563.76 136.572 565.872 137.724C569.712 140.028 574.128 142.044 579.12 143.772C585.648 145.692 592.176 146.652 598.704 146.652C606.192 146.652 611.568 145.596 614.832 143.484C618.288 141.372 620.016 138.396 620.016 134.556C620.016 131.484 618.864 129.18 616.56 127.644C614.256 126.108 611.184 124.956 607.344 124.188C603.696 123.228 599.568 122.46 594.96 121.884C590.544 121.116 586.032 120.156 581.424 119.004C576.816 117.852 572.688 116.124 569.04 113.82C565.392 111.516 562.416 108.444 560.112 104.604C557.808 100.572 556.656 95.292 556.656 88.764C556.656 81.852 558.48 75.804 562.128 70.62C565.776 65.436 570.96 61.404 577.68 58.524C584.4 55.644 592.464 54.204 601.872 54.204C608.592 54.204 615.504 55.068 622.608 56.796C622.8 56.796 622.896 56.796 622.896 56.796C627.696 57.948 631.152 60.828 633.264 65.436C635.376 70.044 635.376 74.556 633.264 78.972L632.688 80.412C631.536 82.524 629.904 83.004 627.792 81.852C624.144 79.74 620.304 78.204 616.272 77.244C611.28 76.092 606.384 75.516 601.584 75.516C594.288 75.516 588.816 76.668 585.168 78.972C581.712 81.276 579.984 84.252 579.984 87.9C579.984 91.164 581.136 93.66 583.44 95.388C585.744 96.924 588.72 98.172 592.368 99.132C596.208 100.092 600.336 100.956 604.752 101.724C609.36 102.492 613.872 103.452 618.288 104.604C622.896 105.756 627.024 107.388 630.672 109.5Z" fill="white"/>
</svg>
